<mxfile host="app.diagrams.net" modified="2024-03-05T03:01:41.888Z" agent="Mozilla/5.0 (Windows NT 10.0; Win64; x64) AppleWebKit/537.36 (KHTML, like Gecko) Chrome/122.0.0.0 Safari/537.36 Edg/122.0.0.0" etag="WrbUmxLESFGj8DvcHjJB" version="24.0.1" type="device">
  <diagram name="Trang-1" id="wBRvA0FRuDgJz07K_90X">
    <mxGraphModel dx="1895" dy="1035" grid="1" gridSize="10" guides="1" tooltips="1" connect="1" arrows="1" fold="1" page="1" pageScale="1" pageWidth="827" pageHeight="1169" math="0" shadow="0">
      <root>
        <mxCell id="0" />
        <mxCell id="1" parent="0" />
        <mxCell id="P-LI7PInyzLhVxZQNnNQ-30" style="edgeStyle=orthogonalEdgeStyle;rounded=0;orthogonalLoop=1;jettySize=auto;html=1;exitX=0.5;exitY=1;exitDx=0;exitDy=0;" edge="1" parent="1" source="P-LI7PInyzLhVxZQNnNQ-1" target="P-LI7PInyzLhVxZQNnNQ-31">
          <mxGeometry relative="1" as="geometry">
            <mxPoint x="99.66666666666674" y="280" as="targetPoint" />
          </mxGeometry>
        </mxCell>
        <mxCell id="P-LI7PInyzLhVxZQNnNQ-1" value="Đăng Ký" style="rounded=0;whiteSpace=wrap;html=1;" vertex="1" parent="1">
          <mxGeometry x="40" y="180" width="120" height="65" as="geometry" />
        </mxCell>
        <mxCell id="P-LI7PInyzLhVxZQNnNQ-3" style="edgeStyle=orthogonalEdgeStyle;rounded=0;orthogonalLoop=1;jettySize=auto;html=1;exitX=0.5;exitY=1;exitDx=0;exitDy=0;entryX=0.5;entryY=0;entryDx=0;entryDy=0;" edge="1" parent="1" source="P-LI7PInyzLhVxZQNnNQ-2" target="P-LI7PInyzLhVxZQNnNQ-1">
          <mxGeometry relative="1" as="geometry">
            <Array as="points">
              <mxPoint x="220" y="160" />
              <mxPoint x="100" y="160" />
            </Array>
          </mxGeometry>
        </mxCell>
        <mxCell id="P-LI7PInyzLhVxZQNnNQ-5" style="edgeStyle=orthogonalEdgeStyle;rounded=0;orthogonalLoop=1;jettySize=auto;html=1;exitX=0.5;exitY=1;exitDx=0;exitDy=0;" edge="1" parent="1" source="P-LI7PInyzLhVxZQNnNQ-2" target="P-LI7PInyzLhVxZQNnNQ-4">
          <mxGeometry relative="1" as="geometry">
            <Array as="points">
              <mxPoint x="220" y="160" />
              <mxPoint x="340" y="160" />
            </Array>
          </mxGeometry>
        </mxCell>
        <mxCell id="P-LI7PInyzLhVxZQNnNQ-2" value="Bắt đầu" style="ellipse;whiteSpace=wrap;html=1;" vertex="1" parent="1">
          <mxGeometry x="160" y="40" width="120" height="80" as="geometry" />
        </mxCell>
        <mxCell id="P-LI7PInyzLhVxZQNnNQ-4" value="Đăng Nhập" style="rounded=0;whiteSpace=wrap;html=1;" vertex="1" parent="1">
          <mxGeometry x="280" y="180" width="120" height="65" as="geometry" />
        </mxCell>
        <mxCell id="P-LI7PInyzLhVxZQNnNQ-13" value="Chưa có tài khoản" style="text;html=1;align=center;verticalAlign=middle;resizable=0;points=[];autosize=1;strokeColor=none;fillColor=none;" vertex="1" parent="1">
          <mxGeometry x="100" y="130" width="120" height="30" as="geometry" />
        </mxCell>
        <mxCell id="P-LI7PInyzLhVxZQNnNQ-16" value="Đã có tài khoản" style="text;html=1;align=center;verticalAlign=middle;resizable=0;points=[];autosize=1;strokeColor=none;fillColor=none;" vertex="1" parent="1">
          <mxGeometry x="220" y="130" width="110" height="30" as="geometry" />
        </mxCell>
        <mxCell id="P-LI7PInyzLhVxZQNnNQ-26" style="edgeStyle=orthogonalEdgeStyle;rounded=0;orthogonalLoop=1;jettySize=auto;html=1;" edge="1" parent="1" source="P-LI7PInyzLhVxZQNnNQ-23">
          <mxGeometry relative="1" as="geometry">
            <mxPoint x="220" y="610" as="targetPoint" />
          </mxGeometry>
        </mxCell>
        <mxCell id="P-LI7PInyzLhVxZQNnNQ-23" value="Tìm kiếm sản phẩm&lt;div&gt;(search)&lt;/div&gt;" style="rounded=0;whiteSpace=wrap;html=1;" vertex="1" parent="1">
          <mxGeometry x="160" y="480" width="120" height="60" as="geometry" />
        </mxCell>
        <mxCell id="P-LI7PInyzLhVxZQNnNQ-28" style="edgeStyle=orthogonalEdgeStyle;rounded=0;orthogonalLoop=1;jettySize=auto;html=1;" edge="1" parent="1" source="P-LI7PInyzLhVxZQNnNQ-27" target="P-LI7PInyzLhVxZQNnNQ-29">
          <mxGeometry relative="1" as="geometry">
            <mxPoint x="220" y="740" as="targetPoint" />
          </mxGeometry>
        </mxCell>
        <mxCell id="P-LI7PInyzLhVxZQNnNQ-27" value="&lt;div style=&quot;&quot;&gt;&lt;span style=&quot;background-color: initial;&quot;&gt;Coi sản phẩm thông qua danh mục sản phẩm&lt;/span&gt;&lt;/div&gt;" style="rounded=0;whiteSpace=wrap;html=1;align=center;" vertex="1" parent="1">
          <mxGeometry x="160" y="610" width="120" height="60" as="geometry" />
        </mxCell>
        <mxCell id="P-LI7PInyzLhVxZQNnNQ-36" style="edgeStyle=orthogonalEdgeStyle;rounded=0;orthogonalLoop=1;jettySize=auto;html=1;" edge="1" parent="1" source="P-LI7PInyzLhVxZQNnNQ-29" target="P-LI7PInyzLhVxZQNnNQ-35">
          <mxGeometry relative="1" as="geometry" />
        </mxCell>
        <mxCell id="P-LI7PInyzLhVxZQNnNQ-29" value="&lt;div style=&quot;&quot;&gt;Hệ hỗ trợ ra quyết định gợi ý những sản phẩm thích hợp&amp;nbsp;&lt;/div&gt;" style="rounded=0;whiteSpace=wrap;html=1;align=center;" vertex="1" parent="1">
          <mxGeometry x="135" y="740" width="170" height="70" as="geometry" />
        </mxCell>
        <mxCell id="P-LI7PInyzLhVxZQNnNQ-67" style="edgeStyle=orthogonalEdgeStyle;rounded=0;orthogonalLoop=1;jettySize=auto;html=1;exitX=0.5;exitY=1;exitDx=0;exitDy=0;entryX=0.5;entryY=0;entryDx=0;entryDy=0;" edge="1" parent="1" source="P-LI7PInyzLhVxZQNnNQ-31" target="P-LI7PInyzLhVxZQNnNQ-23">
          <mxGeometry relative="1" as="geometry">
            <Array as="points">
              <mxPoint x="100" y="440" />
              <mxPoint x="220" y="440" />
            </Array>
          </mxGeometry>
        </mxCell>
        <mxCell id="P-LI7PInyzLhVxZQNnNQ-31" value="Hệ thống cập nhập thông tin mới&amp;nbsp;" style="rounded=0;whiteSpace=wrap;html=1;" vertex="1" parent="1">
          <mxGeometry x="39.99666666666678" y="330" width="120" height="60" as="geometry" />
        </mxCell>
        <mxCell id="P-LI7PInyzLhVxZQNnNQ-37" style="edgeStyle=orthogonalEdgeStyle;rounded=0;orthogonalLoop=1;jettySize=auto;html=1;" edge="1" parent="1" source="P-LI7PInyzLhVxZQNnNQ-35" target="P-LI7PInyzLhVxZQNnNQ-38">
          <mxGeometry relative="1" as="geometry">
            <mxPoint x="221" y="1009.9999999999998" as="targetPoint" />
          </mxGeometry>
        </mxCell>
        <mxCell id="P-LI7PInyzLhVxZQNnNQ-35" value="&lt;div&gt;H&lt;span style=&quot;background-color: initial;&quot;&gt;ệ thống sẽ xử lý các giao dịch của khách hàng qua giỏ hàng&lt;/span&gt;&lt;/div&gt;" style="rounded=0;whiteSpace=wrap;html=1;" vertex="1" parent="1">
          <mxGeometry x="135" y="880" width="170" height="70" as="geometry" />
        </mxCell>
        <mxCell id="P-LI7PInyzLhVxZQNnNQ-39" style="edgeStyle=orthogonalEdgeStyle;rounded=0;orthogonalLoop=1;jettySize=auto;html=1;" edge="1" parent="1" source="P-LI7PInyzLhVxZQNnNQ-38" target="P-LI7PInyzLhVxZQNnNQ-40">
          <mxGeometry relative="1" as="geometry">
            <mxPoint x="480" y="960" as="targetPoint" />
          </mxGeometry>
        </mxCell>
        <mxCell id="P-LI7PInyzLhVxZQNnNQ-38" value="&lt;div&gt;&amp;nbsp;Giỏ hàng: xem lại đơn hàng, thay đổi, tính giá và đặt hàng&lt;/div&gt;" style="rounded=0;whiteSpace=wrap;html=1;" vertex="1" parent="1">
          <mxGeometry x="135" y="1020" width="170" height="60" as="geometry" />
        </mxCell>
        <mxCell id="P-LI7PInyzLhVxZQNnNQ-41" style="edgeStyle=orthogonalEdgeStyle;rounded=0;orthogonalLoop=1;jettySize=auto;html=1;exitX=0.25;exitY=0;exitDx=0;exitDy=0;" edge="1" parent="1" source="P-LI7PInyzLhVxZQNnNQ-40" target="P-LI7PInyzLhVxZQNnNQ-42">
          <mxGeometry relative="1" as="geometry">
            <mxPoint x="520" y="810" as="targetPoint" />
            <Array as="points">
              <mxPoint x="620" y="890" />
              <mxPoint x="620" y="850" />
              <mxPoint x="530" y="850" />
            </Array>
          </mxGeometry>
        </mxCell>
        <mxCell id="P-LI7PInyzLhVxZQNnNQ-45" style="edgeStyle=orthogonalEdgeStyle;rounded=0;orthogonalLoop=1;jettySize=auto;html=1;" edge="1" parent="1" target="P-LI7PInyzLhVxZQNnNQ-46">
          <mxGeometry relative="1" as="geometry">
            <mxPoint x="710" y="819.9999999999998" as="targetPoint" />
            <mxPoint x="650" y="890" as="sourcePoint" />
            <Array as="points">
              <mxPoint x="620" y="890" />
              <mxPoint x="620" y="850" />
              <mxPoint x="710" y="850" />
            </Array>
          </mxGeometry>
        </mxCell>
        <mxCell id="P-LI7PInyzLhVxZQNnNQ-40" value="&lt;div&gt;&amp;nbsp;Hệ thống xử lý giao dịch&lt;/div&gt;" style="rounded=0;whiteSpace=wrap;html=1;" vertex="1" parent="1">
          <mxGeometry x="560" y="890" width="120" height="60" as="geometry" />
        </mxCell>
        <mxCell id="P-LI7PInyzLhVxZQNnNQ-49" style="edgeStyle=orthogonalEdgeStyle;rounded=0;orthogonalLoop=1;jettySize=auto;html=1;exitX=0.5;exitY=0;exitDx=0;exitDy=0;" edge="1" parent="1" source="P-LI7PInyzLhVxZQNnNQ-42">
          <mxGeometry relative="1" as="geometry">
            <mxPoint x="620" y="539.9999999999998" as="targetPoint" />
            <Array as="points">
              <mxPoint x="530" y="640" />
              <mxPoint x="620" y="640" />
            </Array>
          </mxGeometry>
        </mxCell>
        <mxCell id="P-LI7PInyzLhVxZQNnNQ-42" value="&lt;div&gt;Thanh toán online: Internet Banking, Oneday, thẻ Visa, thẻ ATM ngân hàng, etc…&lt;/div&gt;" style="rounded=0;whiteSpace=wrap;html=1;" vertex="1" parent="1">
          <mxGeometry x="450" y="730" width="160" height="80" as="geometry" />
        </mxCell>
        <mxCell id="P-LI7PInyzLhVxZQNnNQ-46" value="&lt;div&gt;Thanh toán tiền mặt: thanh toán bằng tiền mặt trực tiếp (COD)&lt;/div&gt;" style="rounded=0;whiteSpace=wrap;html=1;" vertex="1" parent="1">
          <mxGeometry x="630" y="730" width="160" height="80" as="geometry" />
        </mxCell>
        <mxCell id="P-LI7PInyzLhVxZQNnNQ-56" style="edgeStyle=orthogonalEdgeStyle;rounded=0;orthogonalLoop=1;jettySize=auto;html=1;exitX=0.25;exitY=0;exitDx=0;exitDy=0;dashed=1;" edge="1" parent="1" source="P-LI7PInyzLhVxZQNnNQ-51" target="P-LI7PInyzLhVxZQNnNQ-57">
          <mxGeometry relative="1" as="geometry">
            <mxPoint x="590" y="400" as="targetPoint" />
          </mxGeometry>
        </mxCell>
        <mxCell id="P-LI7PInyzLhVxZQNnNQ-51" value="Hoàn tất đơn hàng" style="rounded=0;whiteSpace=wrap;html=1;" vertex="1" parent="1">
          <mxGeometry x="560" y="480" width="120" height="60" as="geometry" />
        </mxCell>
        <mxCell id="P-LI7PInyzLhVxZQNnNQ-57" value="&lt;div&gt;Thắc mắc được giải đáp&amp;nbsp; qua trung tâm hỗ trợ trực tuyến&lt;/div&gt;" style="rounded=0;whiteSpace=wrap;html=1;" vertex="1" parent="1">
          <mxGeometry x="470" y="340" width="140" height="90" as="geometry" />
        </mxCell>
        <mxCell id="P-LI7PInyzLhVxZQNnNQ-60" value="Kết thúc" style="ellipse;whiteSpace=wrap;html=1;" vertex="1" parent="1">
          <mxGeometry x="560" y="50" width="120" height="80" as="geometry" />
        </mxCell>
        <mxCell id="P-LI7PInyzLhVxZQNnNQ-61" style="edgeStyle=orthogonalEdgeStyle;rounded=0;orthogonalLoop=1;jettySize=auto;html=1;exitX=0.75;exitY=0;exitDx=0;exitDy=0;entryX=0.5;entryY=1;entryDx=0;entryDy=0;" edge="1" parent="1" source="P-LI7PInyzLhVxZQNnNQ-51" target="P-LI7PInyzLhVxZQNnNQ-60">
          <mxGeometry relative="1" as="geometry">
            <Array as="points">
              <mxPoint x="680" y="480" />
              <mxPoint x="680" y="510" />
              <mxPoint x="720" y="510" />
              <mxPoint x="720" y="300" />
              <mxPoint x="620" y="300" />
            </Array>
          </mxGeometry>
        </mxCell>
        <mxCell id="P-LI7PInyzLhVxZQNnNQ-65" value="" style="endArrow=none;html=1;rounded=0;" edge="1" parent="1">
          <mxGeometry width="50" height="50" relative="1" as="geometry">
            <mxPoint x="540" y="340" as="sourcePoint" />
            <mxPoint x="620" y="300" as="targetPoint" />
            <Array as="points">
              <mxPoint x="540" y="300" />
            </Array>
          </mxGeometry>
        </mxCell>
        <mxCell id="P-LI7PInyzLhVxZQNnNQ-66" value="Tùy&lt;span style=&quot;background-color: initial;&quot;&gt;&amp;nbsp;chọn&lt;/span&gt;" style="text;html=1;align=center;verticalAlign=middle;resizable=0;points=[];autosize=1;strokeColor=none;fillColor=none;" vertex="1" parent="1">
          <mxGeometry x="470" y="430" width="70" height="30" as="geometry" />
        </mxCell>
        <mxCell id="P-LI7PInyzLhVxZQNnNQ-68" value="" style="endArrow=none;html=1;rounded=0;" edge="1" parent="1">
          <mxGeometry width="50" height="50" relative="1" as="geometry">
            <mxPoint x="220" y="440" as="sourcePoint" />
            <mxPoint x="340" y="245" as="targetPoint" />
            <Array as="points">
              <mxPoint x="340" y="440" />
            </Array>
          </mxGeometry>
        </mxCell>
        <mxCell id="P-LI7PInyzLhVxZQNnNQ-69" value="" style="endArrow=none;html=1;rounded=0;" edge="1" parent="1">
          <mxGeometry width="50" height="50" relative="1" as="geometry">
            <mxPoint x="710" y="730" as="sourcePoint" />
            <mxPoint x="620" y="640" as="targetPoint" />
            <Array as="points">
              <mxPoint x="710" y="640" />
              <mxPoint x="670" y="640" />
            </Array>
          </mxGeometry>
        </mxCell>
      </root>
    </mxGraphModel>
  </diagram>
</mxfile>
